<svg id="Layer_1" data-name="Layer 1" xmlns="http://www.w3.org/2000/svg" viewBox="0 0 1000 1000"><defs><style>.cls-1{fill:#1d1d1b;}</style></defs><path class="cls-1" d="M263.06,570.2a41.14,41.14,0,0,1,7.94-.66,65.09,65.09,0,0,1,15,1.76q7.5,1.77,10.15,4.41a12.11,12.11,0,0,1,3.75,8.83,10.69,10.69,0,0,1-4.41,9c-1.77,1.48-4.27,2.21-7.5,2.21a49.2,49.2,0,0,1-8.39-1.21,49.25,49.25,0,0,0-8.82-1.22c-2.65,0-4.63.59-6,1.77q-4.19,3.75-5.29,12.79l-.44,4.86h7.5q6.62,0,9.7,1.1a10,10,0,0,1,5.08,4.19,13.33,13.33,0,0,1,0,13.24,9,9,0,0,1-4.74,4.19c-2,.74-5.12,1.1-9.38,1.1h-7.5l.66,6.18q.66,10.82,1.32,28.68.67,13.9.67,18.09a18.54,18.54,0,0,1-1.11,7.06q-3.09,6.4-10.81,6.4t-10.59-5.51q-.88-1.77-2.65-23.94t-1.76-31.22V636.6h-3.75a11.23,11.23,0,0,1-8.27-3.41,11,11,0,0,1-3.42-8.06v-1.54q1.53-10.82,12.79-10.81h1.11a2.28,2.28,0,0,0,2.31-1.22,49,49,0,0,0,1.66-7.83Q243,575.05,263.06,570.2Z"/><path class="cls-1" d="M379.54,604.61a12.33,12.33,0,0,1,6.62-1.54,12.83,12.83,0,0,1,6.84,1.54,12.41,12.41,0,0,1,3.64,4.2,10.47,10.47,0,0,1,1.65,5.07c0,.88.15,1.25.45,1.1s1.17-.66,2.64-2q7.06-6.18,17.87-6.18A25.2,25.2,0,0,1,430.51,609q11.25,6,12.57,24.71a48.14,48.14,0,0,1,.22,4.85,7.35,7.35,0,0,1-2,5.07,12.12,12.12,0,0,1-9.71,4.86h-1.55a11,11,0,0,1-7.83-4.08,13.7,13.7,0,0,1-3-8.94c0-1.91-.14-2.87-.44-2.87-.15-.14-.44,0-.88.44q-4,3.1-5.52,11.26-.66,3.52-1.54,20.29-.45,13-1.32,16.77a12.47,12.47,0,0,1-4.2,6.62c-2.79,2.5-5.37,3.75-7.72,3.75q-9.48,0-15.88-23.83a254.57,254.57,0,0,1-6.4-35.74q-1.11-10.59-1.1-15Q374.25,607.71,379.54,604.61Z"/><path class="cls-1" d="M467.13,604.61a12.31,12.31,0,0,1,6.62-1.54,12.79,12.79,0,0,1,6.83,1.54,12.31,12.31,0,0,1,3.64,4.2,10.39,10.39,0,0,1,1.66,5.07c0,.88.14,1.25.44,1.1s1.18-.66,2.65-2q7-6.18,17.87-6.18A25.12,25.12,0,0,1,518.09,609q11.25,6,12.58,24.71c.14,1.47.22,3.09.22,4.85a7.36,7.36,0,0,1-2,5.07,12.11,12.11,0,0,1-9.71,4.86h-1.54a11,11,0,0,1-7.83-4.08,13.65,13.65,0,0,1-3-8.94c0-1.91-.15-2.87-.44-2.87s-.44,0-.89.44q-4,3.1-5.51,11.26-.66,3.52-1.54,20.29-.45,13-1.33,16.77a12.45,12.45,0,0,1-4.19,6.62q-4.2,3.75-7.72,3.75-9.5,0-15.89-23.83a256,256,0,0,1-6.4-35.74q-1.1-10.59-1.1-15Q461.83,607.71,467.13,604.61Z"/><path class="cls-1" d="M661.71,608.59q6.18-7.5,11.92-7.51a6.47,6.47,0,0,1,4.41,1.55,15.65,15.65,0,0,1,3.75,4.63,13,13,0,0,1,1.54,5.3q.23,2.87.22,15.44a289.14,289.14,0,0,1-4.19,47.43q-4,22.73-9.93,32.21a27.81,27.81,0,0,1-10.25,9.27,29,29,0,0,1-14,3.53,23.83,23.83,0,0,1-14.79-4.85q-3.75-2.87-6.61-9.05a26.53,26.53,0,0,1-2.87-11,5.8,5.8,0,0,1,.11-.88,7.36,7.36,0,0,0,.11-1.11,11.3,11.3,0,0,1,4.3-6.83,12.42,12.42,0,0,1,7.83-2.65,11.44,11.44,0,0,1,7.83,3.31c2.43,2.2,3.64,4.56,3.64,7.06,0,1,.12,1.62.34,1.76s.69.08,1.43-.22q3.53-1.1,6.18-10.15,4-15,4-23.82c0-.59-.55-.59-1.66,0a37.54,37.54,0,0,0-4.19,2.75c-1.69,1.26-2.76,2-3.2,2.32a31.6,31.6,0,0,1-16.1,4.63q-11,0-18.42-9.26t-8.28-25.15v-5.08a22.3,22.3,0,0,1,1.33-7.94q5.73-15.66,28.46-15.66a87.41,87.41,0,0,1,15.88,1.76l8.38,1.77Zm-18.09,24.26a21.17,21.17,0,0,0-4.85-.44,15.7,15.7,0,0,0-8,1.88c-2.14,1.25-3.2,2.83-3.2,4.74a7.16,7.16,0,0,0,2.42,5.08q2.65,2.43,5.08,2,5.07-1.1,9.26-8.82l2-3.75Z"/><path class="cls-1" d="M720.18,611.23q2.42-1.32,9.48-1.32h6.18q13.23.23,17.65,2.21a40.47,40.47,0,0,1,15.22,11.47A47.64,47.64,0,0,1,780,654.7q0,17.43-10.81,28-10.59,10.38-30.22,10.59h-.66q-17.65,0-27-8.38t-9.38-24.27a59.82,59.82,0,0,1,.67-8.6,94.56,94.56,0,0,1,7.39-24.93Q715.75,613.67,720.18,611.23Zm28,26.48a21.13,21.13,0,0,0-4-3.42c-.73-.37-2.42-.55-5.07-.55h-5.52l-2.2,4.85q-4.63,10.59-4.64,18.09t4.64,11a11.4,11.4,0,0,0,7.28,2.43,17.14,17.14,0,0,0,11.8-5,15.28,15.28,0,0,0,5.41-11.58Q755.92,646.09,748.19,637.71Z"/><path class="cls-1" d="M366.82,675.7a11.48,11.48,0,0,1-2.21,6.85,11,11,0,0,1-9.7,4.85,5.63,5.63,0,0,1-3.54-1.43,92.09,92.09,0,0,1-7.25-7.55l-.24-.29q-9.72-10.8-12.59-14.33c-2.64-3.38-4.19-5.07-4.63-5.07s-1.69,2-4.19,5.95a63.14,63.14,0,0,1-14.29,16.84c-.59.51-1.2,1-1.82,1.47-3.09,2.5-5.8,3.74-8.16,3.74a12.93,12.93,0,0,1-9.05-3.19,10.65,10.65,0,0,1-3.52-8.27c0-4.11,1.83-7.58,5.52-10.38q5.06-3.74,14.78-21.17c1.28-2.26,2.29-4.1,3-5.58l0,0a15.32,15.32,0,0,0,1.34-3.37c3.74-8.48,9.25-13.85,15.42-13.85,5.4,0,10.32,4.13,14,10.89v0l.21.36,6.18,10q.68,1.32,8.61,15.89,2.65,5.51,5.53,6.83C364.61,667.26,366.82,670.85,366.82,675.7Z"/><path class="cls-1" d="M606.82,675.7a11.48,11.48,0,0,1-2.21,6.85,11,11,0,0,1-9.7,4.85,5.68,5.68,0,0,1-3.54-1.43,90.88,90.88,0,0,1-7.24-7.55l-.25-.29q-9.72-10.8-12.59-14.33-4-5.07-4.63-5.07-.43,0-4.19,5.95a63,63,0,0,1-14.29,16.84c-.59.51-1.2,1-1.82,1.47-3.09,2.5-5.8,3.74-8.15,3.74a12.92,12.92,0,0,1-9.05-3.19,10.62,10.62,0,0,1-3.53-8.27c0-4.11,1.84-7.58,5.52-10.38q5.07-3.74,14.78-21.17c1.29-2.26,2.3-4.1,3-5.58v0a15.32,15.32,0,0,0,1.34-3.37c3.74-8.48,9.26-13.85,15.42-13.85,5.4,0,10.32,4.13,14,10.89v0l.22.36,6.18,10q.66,1.32,8.6,15.89,2.66,5.51,5.53,6.83C604.61,667.26,606.82,670.85,606.82,675.7Z"/><path class="cls-1" d="M633.74,327.89q0,11.76-7.3,18.93-7.16,7-20.41,7.15h-.45q-11.93,0-18.25-5.67T581,331.91a41,41,0,0,1,.45-5.81,63.89,63.89,0,0,1,5-16.84c2.63-6.05,5-9.63,6.93-10.73q1.64-.88,6.41-.89h4.17q8.94.15,11.92,1.49a27.49,27.49,0,0,1,10.28,7.75A32.18,32.18,0,0,1,633.74,327.89Z"/><path class="cls-1" d="M364.74,480.5q0-11.94,7.4-19.19,7.25-7.1,20.69-7.26h.46q12.09,0,18.51,5.75t6.42,16.62a40.75,40.75,0,0,1-.45,5.9,65,65,0,0,1-5.06,17.07q-4,9.21-7,10.88-1.67.9-6.5.9H395c-6-.09-10.07-.6-12.08-1.5a27.82,27.82,0,0,1-10.43-7.86A32.66,32.66,0,0,1,364.74,480.5Z"/><path class="cls-1" d="M391.41,348.87c-4.59,1.59-9.8.43-13.94-2.11s-7.36-6.32-10.22-10.24a21.39,21.39,0,0,1-3.48-6.3,23.52,23.52,0,0,1-.43-8.12l1.38-21.83c.2-3.3.45-6.75,2.14-9.6a16.93,16.93,0,0,1,6.2-5.58,40.81,40.81,0,0,1,27.33-4.95c5.52,1,10.78,3.05,16.1,4.82,21.33,7.12,43.94,9.19,66.11,13a77.91,77.91,0,0,1,15.4,3.8c7.51,2.93,14,7.9,20.35,12.9,3.67,2.9,7.45,6,9.32,10.29,3,6.92.33,15-3.28,21.61-1.94,3.57-4.22,7.07-7.52,9.45-7.06,5.11-16.75,3.81-25.28,2q-18.48-3.87-36.55-9.42c-9.06-2.78-18.06-5.88-27.41-7.44a32.34,32.34,0,0,0-7.85-.54,40.17,40.17,0,0,0-7.11,1.43l-20.35,5.41c-1.39.36-2.93.85-3.6,2.12"/><path class="cls-1" d="M556.36,376.76a28.53,28.53,0,0,0-15.3,1.18,19.52,19.52,0,0,0-11,10.37A33.26,33.26,0,0,0,528.2,397c-.44,3.67-.88,7.34-1.16,11s-.24,7.84,2.24,10.61c1.73,1.92,4.3,2.79,6.76,3.57,12.13,3.82,24.44,7.13,36.41,11.43,11.11,4,22,8.82,33.58,11,5.49,1,11.44,1.42,16.41-1.14,3.92-2,6.78-5.63,9-9.41,3.79-6.36,6.27-13.86,5-21.14a14,14,0,0,0-1.78-5,17.15,17.15,0,0,0-4.24-4.3c-11.12-8.57-25.11-12.46-38.91-15.05-4.26-.8-8.59-1.51-12.58-3.21-3.54-1.51-6.72-3.75-10.18-5.44A35.62,35.62,0,0,0,553,376.4"/><path class="cls-1" d="M426.16,377a11.61,11.61,0,0,1-2.43.09,94.59,94.59,0,0,1-30.41-6.26,27.76,27.76,0,0,0-4.46-1.48c-5-1-10.27,1.31-14,4.87s-6.08,8.22-8.29,12.85c-1.57,3.3-3.12,6.82-2.89,10.47s2.16,6.83,4.49,9.54c6.87,8,17.23,12.09,27.47,14.59s20.83,3.74,30.7,7.44c6.16,2.3,12.13,5.58,18.7,6a35.8,35.8,0,0,0,12.54-1.87c4.1-1.23,8.31-2.9,11-6.22,2.39-2.95,3.26-6.85,3.71-10.62a61.13,61.13,0,0,0,.22-12,8.47,8.47,0,0,0-.8-3.38,15.05,15.05,0,0,0-2.87-3.05c-1.87-1.89-3-4.39-4.78-6.38a23.9,23.9,0,0,0-7.58-5.17,103.5,103.5,0,0,0-33.31-9.72"/><path class="cls-1" d="M503.69,451.22a26.06,26.06,0,0,0-28.42,39.07,21.25,21.25,0,0,0,7.27,7.24c3,1.75,6.53,2.55,9.94,3.38,40.49,9.8,79.8,25.86,121.34,29,2.25.17,4.65.27,6.62-.84a11.19,11.19,0,0,0,3.57-3.82c7.19-10.84,12.2-23.77,10.7-36.7s-10.83-25.43-23.65-27.68a15.82,15.82,0,0,0-6.17,0A26.67,26.67,0,0,0,598,463.9a96.42,96.42,0,0,1-25.31,9.58c-3.56.8-7.34,1.38-10.81.26-2.84-.92-5.19-2.89-7.75-4.41A53.73,53.73,0,0,0,543.75,465l-42.21-14.13"/></svg>